<?xml version="1.0" encoding="UTF-8" standalone="no"?>
<svg
   xmlns:dc="http://purl.org/dc/elements/1.1/"
   xmlns:cc="http://creativecommons.org/ns#"
   xmlns:rdf="http://www.w3.org/1999/02/22-rdf-syntax-ns#"
   xmlns:svg="http://www.w3.org/2000/svg"
   xmlns="http://www.w3.org/2000/svg"
   xmlns:sodipodi="http://sodipodi.sourceforge.net/DTD/sodipodi-0.dtd"
   xmlns:inkscape="http://www.inkscape.org/namespaces/inkscape"
   version="1.1"
   x="0px"
   y="0px"
   viewBox="0 0 79.293396 86.495003"
   enable-background="new 0 0 100 100"
   xml:space="preserve"
   id="svg2"
   inkscape:version="0.91 r13725"
   sodipodi:docname="brain_icon.svg"
   width="79.293396"
   height="86.495003"><metadata
     id="metadata16"><rdf:RDF><cc:Work
         rdf:about=""><dc:format>image/svg+xml</dc:format><dc:type
           rdf:resource="http://purl.org/dc/dcmitype/StillImage" /><dc:title></dc:title></cc:Work></rdf:RDF></metadata><defs
     id="defs14" /><sodipodi:namedview
     pagecolor="#ffffff"
     bordercolor="#666666"
     borderopacity="1"
     objecttolerance="10"
     gridtolerance="10"
     guidetolerance="10"
     inkscape:pageopacity="0"
     inkscape:pageshadow="2"
     inkscape:window-width="1920"
     inkscape:window-height="1177"
     id="namedview12"
     showgrid="false"
     fit-margin-top="0"
     fit-margin-left="0"
     fit-margin-right="0"
     fit-margin-bottom="0"
     inkscape:zoom="1.888"
     inkscape:cx="41.553"
     inkscape:cy="31.332"
     inkscape:window-x="1912"
     inkscape:window-y="-8"
     inkscape:window-maximized="1"
     inkscape:current-layer="svg2" /><g
     id="g4"
     transform="translate(-8.447,-7.337)"><path
       d="m 17.196,29.365 c 0.424,-1.067 0.922,-2.151 1.491,-3.239 5.507,-11.064 18.144,-18.789 32.775,-18.789 15.423,0 28.608,8.646 33.599,20.688 0.184,0.443 0.354,0.89 0.516,1.341 l -14.806,0 -0.024,0.081 c -0.974,-0.029 -1.955,0.484 -2.349,1.729 L 66.17,38.23 63.921,29.262 62.514,23.656 c -0.775,-3.101 -4.189,-3.007 -4.8,0.131 L 56.686,29.11 54.266,41.606 50.955,27.856 48.169,16.28 c -0.749,-3.117 -4.197,-3.037 -4.804,0.111 l -2.144,11.16 -1.268,6.598 -2.037,10.612 -2.03,-8.422 -1.19,-4.942 C 34.528,30.325 33.717,29.365 32.27,29.365 l -4.39,0 -10.684,0 z m 69.798,4.918 c 0.096,0.495 0.189,1.063 0.268,1.702 1.818,10.992 -1.668,20.554 -8.377,29.764 -4.414,7.142 -4.203,19.948 -2.066,27.985 l 0.025,0.098 -19.677,0 -16.75,0 -0.766,-3.493 C 38.934,86.697 36.986,85.154 32.462,85.154 L 22.277,85.142 c -2.956,-0.093 -5.321,-2.52 -5.321,-5.496 l -0.001,-0.34 c 0.034,-4.877 0.072,-13.668 0.084,-17.338 l -5.209,-0.027 -0.486,0 c -1.625,-0.144 -2.897,-1.51 -2.897,-3.172 0,-0.543 0.103,-1.057 0.343,-1.506 1.269,-2.33 3.977,-7.104 5.851,-10.188 2.147,-3.529 2.055,-4.058 1.228,-6.766 -0.504,-1.655 -0.528,-3.728 -0.111,-6.027 l 12.125,0 2.452,0 0.772,3.21 4.692,19.466 c 0.752,3.117 4.201,3.036 4.804,-0.111 l 4.183,-21.771 1.269,-6.598 0.122,0.525 4.73,19.652 1.231,5.112 c 0.748,3.115 4.194,3.039 4.803,-0.107 l 0.99,-5.111 2.508,-12.958 3.076,12.256 c 0.744,2.977 3.805,3.069 4.729,0.143 l 4.332,-13.707 14.418,0 z"
       id="path6"
       inkscape:connector-curvature="0"
       style="fill:#000000" /></g></svg>