<?xml version="1.0" encoding="UTF-8" standalone="no"?>
<svg
   xmlns:dc="http://purl.org/dc/elements/1.1/"
   xmlns:cc="http://creativecommons.org/ns#"
   xmlns:rdf="http://www.w3.org/1999/02/22-rdf-syntax-ns#"
   xmlns:svg="http://www.w3.org/2000/svg"
   xmlns="http://www.w3.org/2000/svg"
   xmlns:sodipodi="http://sodipodi.sourceforge.net/DTD/sodipodi-0.dtd"
   xmlns:inkscape="http://www.inkscape.org/namespaces/inkscape"
   version="1.1"
   x="0px"
   y="0px"
   viewBox="0.5 24.5 20 20"
   enable-background="new 0.5 24.5 24 24"
   xml:space="preserve"
   id="svg2"
   inkscape:version="0.91 r13725"
   sodipodi:docname="contribute_icon.svg"
   width="20"
   height="20"><metadata
     id="metadata26"><rdf:RDF><cc:Work
         rdf:about=""><dc:format>image/svg+xml</dc:format><dc:type
           rdf:resource="http://purl.org/dc/dcmitype/StillImage" /><dc:title></dc:title></cc:Work></rdf:RDF></metadata><defs
     id="defs24" /><sodipodi:namedview
     pagecolor="#ffffff"
     bordercolor="#666666"
     borderopacity="1"
     objecttolerance="10"
     gridtolerance="10"
     guidetolerance="10"
     inkscape:pageopacity="0"
     inkscape:pageshadow="2"
     inkscape:window-width="1920"
     inkscape:window-height="1177"
     id="namedview22"
     showgrid="false"
     fit-margin-top="0"
     fit-margin-left="0"
     fit-margin-right="0"
     fit-margin-bottom="0"
     inkscape:zoom="7.8666667"
     inkscape:cx="35.61991"
     inkscape:cy="7"
     inkscape:window-x="1912"
     inkscape:window-y="-8"
     inkscape:window-maximized="1"
     inkscape:current-layer="svg2" /><g
     id="g4"
     transform="translate(-2,-2)"><circle
       cx="18.5"
       cy="39.5"
       r="2"
       id="circle6" /><circle
       cx="6.5"
       cy="28.5"
       r="2"
       id="circle8" /><path
       d="m 10.5,42.5 -4,0 0,-4 c 0,-0.553 -0.448,-1 -1,-1 -0.552,0 -1,0.447 -1,1 l 0,5 c 0,0.553 0.448,1 1,1 l 5,0 0,2 3,-3 -3,-3 0,2 z"
       id="path10"
       inkscape:connector-curvature="0" /><path
       d="m 18.5,34.5 c 0,0.553 0.447,1 1,1 0.553,0 1,-0.447 1,-1 l 0,-5 c 0,-0.553 -0.447,-1 -1,-1 l -6,0 0,-2 -3,3 3,3 0,-2 5,0 0,4 z"
       id="path12"
       inkscape:connector-curvature="0" /><path
       d="m 10.5,33.5 c 0,-1.104 -0.896,-2 -2,-2 l -4,0 c -1.104,0 -2,0.896 -2,2 l 0,2 8,0 0,-2 z"
       id="path14"
       inkscape:connector-curvature="0" /><path
       d="m 20.5,42.5 -4,0 c -1.104,0 -2,0.896 -2,2 l 0,2 8,0 0,-2 c 0,-1.104 -0.896,-2 -2,-2 z"
       id="path16"
       inkscape:connector-curvature="0" /></g></svg>