<?xml version="1.0" encoding="UTF-8" standalone="no"?>
<svg
   xmlns:dc="http://purl.org/dc/elements/1.1/"
   xmlns:cc="http://creativecommons.org/ns#"
   xmlns:rdf="http://www.w3.org/1999/02/22-rdf-syntax-ns#"
   xmlns:svg="http://www.w3.org/2000/svg"
   xmlns="http://www.w3.org/2000/svg"
   xmlns:sodipodi="http://sodipodi.sourceforge.net/DTD/sodipodi-0.dtd"
   xmlns:inkscape="http://www.inkscape.org/namespaces/inkscape"
   version="1.1"
   x="0px"
   y="0px"
   viewBox="0 0 55 71"
   enable-background="new 0 0 72 72"
   xml:space="preserve"
   id="svg2"
   inkscape:version="0.91 r13725"
   sodipodi:docname="degree_icon.svg"
   width="55"
   height="71"><metadata
     id="metadata16"><rdf:RDF><cc:Work
         rdf:about=""><dc:format>image/svg+xml</dc:format><dc:type
           rdf:resource="http://purl.org/dc/dcmitype/StillImage" /><dc:title></dc:title></cc:Work></rdf:RDF></metadata><defs
     id="defs14" /><sodipodi:namedview
     pagecolor="#ffffff"
     bordercolor="#666666"
     borderopacity="1"
     objecttolerance="10"
     gridtolerance="10"
     guidetolerance="10"
     inkscape:pageopacity="0"
     inkscape:pageshadow="2"
     inkscape:window-width="1920"
     inkscape:window-height="1177"
     id="namedview12"
     showgrid="false"
     fit-margin-top="0"
     fit-margin-left="0"
     fit-margin-right="0"
     fit-margin-bottom="0"
     inkscape:zoom="2.6222222"
     inkscape:cx="27.5"
     inkscape:cy="26.5"
     inkscape:window-x="1912"
     inkscape:window-y="-8"
     inkscape:window-maximized="1"
     inkscape:current-layer="svg2" /><g
     id="g4"
     transform="translate(-8.5,-0.5)"><path
       d="m 60.7,0.5 -49.4,0 C 9.8,0.5 8.5,1.8 8.5,3.3 l 0,65.4 c 0,1.5 1.3,2.8 2.8,2.8 l 49.4,0 c 1.5,0 2.8,-1.3 2.8,-2.8 l 0,-65.4 c 0,-1.5 -1.3,-2.8 -2.8,-2.8 z m -6.6,53.3 -1,0.8 c -0.2,0.1 -0.2,0.3 -0.2,0.5 l 0.3,1.2 c 0.1,0.3 -0.1,0.6 -0.4,0.6 l -1.3,0.2 c -0.2,0 -0.4,0.2 -0.4,0.3 l -0.3,1.1 c -0.1,0.4 -0.5,0.5 -0.9,0.4 l 0,0 c -0.1,0 -0.2,0 -0.2,0.1 l -0.4,7 c 0,0.3 -0.3,0.4 -0.5,0.2 l -1.4,-1.6 c -0.1,-0.1 -0.3,-0.1 -0.4,0 L 45.4,66 c -0.2,0.2 -0.5,0 -0.5,-0.2 l 0.4,-5.6 C 45.3,60.1 45.1,60 45,60.1 l -3.4,4.5 c -0.2,0.2 -0.5,0.1 -0.5,-0.1 l -0.3,-2.2 c 0,-0.2 -0.2,-0.3 -0.3,-0.2 l -2.2,0.3 C 38,62.4 37.9,62.2 38,61.9 l 4.2,-5.6 c 0.1,-0.1 0,-0.2 -0.1,-0.2 l 0,0 C 41.7,56 41.6,55.6 41.7,55.2 l 0.4,-1 c 0.1,-0.2 0,-0.4 -0.1,-0.5 l -0.9,-0.9 c -0.2,-0.2 -0.2,-0.6 0.1,-0.7 l 1,-0.8 c 0.2,-0.1 0.2,-0.3 0.2,-0.5 L 42.1,49.6 C 42,49.3 42.2,49 42.5,49 l 1.3,-0.2 c 0.2,0 0.4,-0.2 0.4,-0.3 l 0.4,-1.2 C 44.7,47 45,46.9 45.3,47 l 1.2,0.5 c 0.2,0.1 0.4,0 0.5,-0.1 l 0.9,-0.9 c 0.2,-0.2 0.6,-0.2 0.7,0.1 l 0.8,1 c 0.1,0.2 0.3,0.2 0.5,0.2 l 1.2,-0.3 c 0.3,-0.1 0.6,0.1 0.6,0.4 l 0.2,1.3 c 0,0.2 0.2,0.4 0.3,0.4 l 1.2,0.4 c 0.3,0.1 0.4,0.4 0.3,0.7 l -0.5,1.2 c -0.1,0.2 0,0.4 0.1,0.5 l 0.9,0.9 c 0.2,0 0.2,0.3 -0.1,0.5 z m 1.9,-18 -40.4,0 c -1.1,0 -2,-0.9 -2,-2 0,-1.1 0.9,-2 2,-2 l 40.4,0 c 1.1,0 2,0.9 2,2 0,1.1 -0.9,2 -2,2 z m 0,-12.2 -40.4,0 c -1.1,0 -2,-0.9 -2,-2 0,-1.1 0.9,-2 2,-2 l 40.4,0 c 1.1,0 2,0.9 2,2 0,1.1 -0.9,2 -2,2 z m 0,-12.3 -40.4,0 c -1.1,0 -2,-0.9 -2,-2 0,-1.1 0.9,-2 2,-2 l 40.4,0 c 1.1,0 2,0.9 2,2 0,1.1 -0.9,2 -2,2 z"
       id="path6"
       inkscape:connector-curvature="0"
       style="fill:#000000" /></g></svg>