<?xml version="1.0" encoding="UTF-8" standalone="no"?>
<svg
   xmlns:dc="http://purl.org/dc/elements/1.1/"
   xmlns:cc="http://creativecommons.org/ns#"
   xmlns:rdf="http://www.w3.org/1999/02/22-rdf-syntax-ns#"
   xmlns:svg="http://www.w3.org/2000/svg"
   xmlns="http://www.w3.org/2000/svg"
   xmlns:sodipodi="http://sodipodi.sourceforge.net/DTD/sodipodi-0.dtd"
   xmlns:inkscape="http://www.inkscape.org/namespaces/inkscape"
   version="1.1"
   x="0px"
   y="0px"
   viewBox="0 0 85.792 89.970001"
   enable-background="new 0 0 100 100"
   xml:space="preserve"
   id="svg2"
   inkscape:version="0.91 r13725"
   sodipodi:docname="dialect_icon.svg"
   width="85.792"
   height="89.970001"><metadata
     id="metadata22"><rdf:RDF><cc:Work
         rdf:about=""><dc:format>image/svg+xml</dc:format><dc:type
           rdf:resource="http://purl.org/dc/dcmitype/StillImage" /><dc:title></dc:title></cc:Work></rdf:RDF></metadata><defs
     id="defs20" /><sodipodi:namedview
     pagecolor="#ffffff"
     bordercolor="#666666"
     borderopacity="1"
     objecttolerance="10"
     gridtolerance="10"
     guidetolerance="10"
     inkscape:pageopacity="0"
     inkscape:pageshadow="2"
     inkscape:window-width="1920"
     inkscape:window-height="1177"
     id="namedview18"
     showgrid="false"
     fit-margin-top="0"
     fit-margin-left="0"
     fit-margin-right="0"
     fit-margin-bottom="0"
     inkscape:zoom="1.888"
     inkscape:cx="43.065"
     inkscape:cy="32.5"
     inkscape:window-x="1912"
     inkscape:window-y="-8"
     inkscape:window-maximized="1"
     inkscape:current-layer="svg2" /><g
     id="g4"
     transform="translate(-6.935,-5.03)"><path
       d="m 17.78,5.03 c -2.801,0 -5.072,2.271 -5.072,5.072 l 0,17.689 c 0,2.801 2.27,5.072 5.072,5.072 l 11.95,0 11.5,11.855 0.024,-11.855 1.893,0 c 2.801,0 5.072,-2.271 5.072,-5.072 l 0,-17.689 c 0,-2.801 -2.27,-5.072 -5.072,-5.072 l -25.367,0 0,0 z"
       id="path6"
       inkscape:connector-curvature="0" /><path
       d="m 36.572,95 -23.343,0 0,-15.759 C 9.495,75.718 6.935,69.357 6.935,63.447 c 0,-10.588 8.614,-19.202 19.202,-19.202 4.946,0 9.643,1.883 13.232,5.302 1.101,0.932 2.033,2.044 2.77,3.304 0.341,0.528 0.699,1.359 0.769,1.525 0.922,2.122 1.429,4.672 1.503,7.573 l 3.666,8.181 c 0.408,0.812 0.363,1.83 -0.151,2.662 -0.513,0.832 -1.405,1.329 -2.382,1.329 l -1.846,0 0,2.936 c 0,4.264 -3.077,7.823 -7.127,8.573 l 0,9.37 z m -20.158,-3.185 16.972,0 0,-9.225 1.593,0 c 3.052,0 5.534,-2.482 5.534,-5.533 l 0,-6.121 4.437,0 -3.712,-8.279 -0.005,-0.329 C 41.196,59.713 40.774,57.46 39.98,55.632 39.822,55.259 39.583,54.759 39.46,54.575 l -0.053,-0.086 c -0.565,-0.972 -1.279,-1.825 -2.126,-2.536 l -0.079,-0.07 c -2.997,-2.871 -6.927,-4.452 -11.065,-4.452 -8.831,0 -16.017,7.185 -16.017,16.017 0,5.246 2.408,11.076 5.725,13.862 l 0.568,0.477 0,14.028 z"
       id="path8"
       inkscape:connector-curvature="0" /><path
       d="m 63.504,94.899 0,-9.409 c -4.125,-0.613 -7.197,-4.154 -7.197,-8.359 l -0.139,-3.01 -2.22,0 c -0.863,0 -1.65,-0.438 -2.104,-1.173 -0.455,-0.734 -0.496,-1.634 -0.108,-2.407 l 3.848,-8.59 c 0.068,-2.914 0.571,-5.471 1.496,-7.6 0.041,-0.098 0.426,-1.001 0.772,-1.518 0.702,-1.217 1.628,-2.316 2.74,-3.25 3.518,-3.373 8.175,-5.238 13.096,-5.238 10.498,0 19.039,8.541 19.039,19.04 0,5.969 -2.549,12.293 -6.356,15.799 l 0,15.716 -22.867,0 z"
       id="path10"
       inkscape:connector-curvature="0" /><path
       d="m 81.81,9.03 c 0.591,0 1.072,0.481 1.072,1.072 l 0,17.689 c 0,0.591 -0.481,1.072 -1.072,1.072 l -11.95,0 -1.693,0 -1.178,1.215 -4.65,4.793 -0.004,-2.016 -0.008,-3.992 -3.992,0 -1.893,0 c -0.591,0 -1.072,-0.481 -1.072,-1.072 l 0,-17.689 c 0,-0.591 0.481,-1.072 1.072,-1.072 l 25.368,0 m 0,-4 -25.368,0 c -2.801,0 -5.072,2.271 -5.072,5.072 l 0,17.689 c 0,2.801 2.271,5.072 5.072,5.072 l 1.893,0 0.024,11.855 11.501,-11.855 11.95,0 c 2.801,0 5.072,-2.271 5.072,-5.072 l 0,-17.689 C 86.882,7.301 84.611,5.03 81.81,5.03 l 0,0 z"
       id="path12"
       inkscape:connector-curvature="0" /></g></svg>