<?xml version="1.0" encoding="UTF-8" standalone="no"?>
<svg
   xmlns:dc="http://purl.org/dc/elements/1.1/"
   xmlns:cc="http://creativecommons.org/ns#"
   xmlns:rdf="http://www.w3.org/1999/02/22-rdf-syntax-ns#"
   xmlns:svg="http://www.w3.org/2000/svg"
   xmlns="http://www.w3.org/2000/svg"
   xmlns:sodipodi="http://sodipodi.sourceforge.net/DTD/sodipodi-0.dtd"
   xmlns:inkscape="http://www.inkscape.org/namespaces/inkscape"
   version="1.1"
   x="0px"
   y="0px"
   viewBox="153.217 178.697 61.348 99.996002"
   enable-background="new 153.217 178.697 61.348 100"
   xml:space="preserve"
   id="svg2"
   inkscape:version="0.91 r13725"
   sodipodi:docname="eiffel_tower_icon.svg"
   width="61.348"
   height="99.996002"><metadata
     id="metadata14"><rdf:RDF><cc:Work
         rdf:about=""><dc:format>image/svg+xml</dc:format><dc:type
           rdf:resource="http://purl.org/dc/dcmitype/StillImage" /><dc:title></dc:title></cc:Work></rdf:RDF></metadata><defs
     id="defs12" /><sodipodi:namedview
     pagecolor="#ffffff"
     bordercolor="#666666"
     borderopacity="1"
     objecttolerance="10"
     gridtolerance="10"
     guidetolerance="10"
     inkscape:pageopacity="0"
     inkscape:pageshadow="2"
     inkscape:window-width="1920"
     inkscape:window-height="1177"
     id="namedview10"
     showgrid="false"
     fit-margin-top="0"
     fit-margin-left="0"
     fit-margin-right="0"
     fit-margin-bottom="0"
     inkscape:zoom="1.888"
     inkscape:cx="30.673995"
     inkscape:cy="37.498994"
     inkscape:window-x="1912"
     inkscape:window-y="-8"
     inkscape:window-maximized="1"
     inkscape:current-layer="svg2" /><path
     d="m 184.832,188.15001 c 0,0 0.618,-0.004 0.663,0 0.744,0.048 1.017,0.449 1.017,1.216 l -0.786,2.112 c 0,0 2.079,27.438 3.688,37.534 0,0 0.622,0 1.381,0 0.762,0 1.384,0.667 1.384,1.479 l 0,2.961 c 0,0 0.022,0.139 0.041,0.181 0.019,0.039 0.165,0.557 0.328,1.146 0,0 3.073,11.15 5.347,15.654 l 1.953,0.021 c 0.815,0 1.481,0.668 1.481,1.48 l -0.021,2.907 c 0,0.813 -0.011,1.488 -0.022,1.497 -0.011,0.007 12.624,18.298 12.624,18.298 0.361,0.494 0.655,0.875 0.655,1.487 l 0,1.457 c 0,0.61 -0.498,1.113 -1.11,1.113 l -11.146,0 c -0.611,0 -1.109,-0.503 -1.109,-1.113 l 0,-2.286 c -1.162,-7.451 -8.631,-14.904 -17.259,-14.904 l -0.1,0 c -8.629,0 -16.097,7.453 -17.259,14.904 l 0,2.286 c 0,0.61 -0.498,1.113 -1.11,1.113 l -11.145,0 c -0.612,0 -1.11,-0.503 -1.11,-1.113 l 0,-1.195 c 0,-0.611 0.288,-0.998 0.641,-1.499 0,0 12.499,-18.658 12.485,-18.666 -0.01,-0.009 -0.021,-0.684 -0.021,-1.495 l 0,-2.791 c 0,-0.812 0.667,-1.479 1.482,-1.479 l 1.953,-0.021 c 2.272,-4.506 5.347,-15.654 5.347,-15.654 0.162,-0.589 0.31,-1.105 0.327,-1.146 0.019,-0.04 0.062,-0.159 0.062,-0.159 l -0.008,-2.979 c -0.007,-0.813 0.609,-1.48 1.368,-1.48 0.762,0 1.383,0 1.383,0 1.607,-10.097 3.646,-37.535 3.646,-37.535 l -0.804,-2.11 c 0,-0.771 0.333,-1.175 1.084,-1.218 0.044,-0.002 0.667,0 0.667,0 l 0.596,-8.977 c 0.013,-0.408 0.19,-0.479 0.393,-0.479 0.203,0 0.378,0.071 0.395,0.479 l 0.619,8.974 z m 4.141,61.76 c 0.612,0 0.979,-0.483 0.816,-1.071 l -3.07,-11.191 c -0.162,-0.591 -0.795,-1.072 -1.407,-1.072 l -2.846,0 c -0.611,0 -1.243,0.481 -1.406,1.072 l -3.069,11.191 c -0.163,0.588 0.204,1.071 0.814,1.071 l 10.168,0 z"
     id="path4"
     inkscape:connector-curvature="0"
     style="fill:#231f20" /></svg>