<?xml version="1.0" encoding="UTF-8" standalone="no"?>
<svg
   xmlns:dc="http://purl.org/dc/elements/1.1/"
   xmlns:cc="http://creativecommons.org/ns#"
   xmlns:rdf="http://www.w3.org/1999/02/22-rdf-syntax-ns#"
   xmlns:svg="http://www.w3.org/2000/svg"
   xmlns="http://www.w3.org/2000/svg"
   xmlns:sodipodi="http://sodipodi.sourceforge.net/DTD/sodipodi-0.dtd"
   xmlns:inkscape="http://www.inkscape.org/namespaces/inkscape"
   version="1.1"
   x="0px"
   y="0px"
   viewBox="0 0 192.00021 173.384"
   enable-background="new 0 0 200 200"
   xml:space="preserve"
   id="svg2"
   inkscape:version="0.91 r13725"
   sodipodi:docname="facebook_icon.svg"
   width="192.00021"
   height="173.384"><metadata
     id="metadata18"><rdf:RDF><cc:Work
         rdf:about=""><dc:format>image/svg+xml</dc:format><dc:type
           rdf:resource="http://purl.org/dc/dcmitype/StillImage" /><dc:title></dc:title></cc:Work></rdf:RDF></metadata><defs
     id="defs16" /><sodipodi:namedview
     pagecolor="#ffffff"
     bordercolor="#666666"
     borderopacity="1"
     objecttolerance="10"
     gridtolerance="10"
     guidetolerance="10"
     inkscape:pageopacity="0"
     inkscape:pageshadow="2"
     inkscape:window-width="1920"
     inkscape:window-height="1177"
     id="namedview14"
     showgrid="false"
     fit-margin-top="0"
     fit-margin-left="0"
     fit-margin-right="0"
     fit-margin-bottom="0"
     inkscape:zoom="0.944"
     inkscape:cx="96"
     inkscape:cy="62"
     inkscape:window-x="1912"
     inkscape:window-y="-8"
     inkscape:window-maximized="1"
     inkscape:current-layer="svg2" /><g
     id="g4"
     transform="translate(-4,-13.616)"><rect
       x="4"
       y="85"
       width="49"
       height="102"
       id="rect6" /><path
       d="m 176.094,79 c -12.019,0 -27.796,0 -27.796,0 0,-12 0.244,-37.852 -1.66,-49.216 -2.677,-15.99 -8.493,-16.168 -15.518,-16.168 -12.021,0 -12.954,16.946 -18.962,40.985 C 106.777,76.132 81,92.68 64,95.919 L 64,175 c 12,0 18.191,0 30.21,0 12.019,0 6.009,12 18.028,12 12.02,0 24.039,0 54.088,0 30.048,0 29.674,-30.242 29.674,-30.242 0,0 0,-45.811 0,-57.583 C 196,87.405 188.113,79 176.094,79 Z"
       id="path8"
       inkscape:connector-curvature="0" /></g></svg>