<?xml version="1.0" encoding="UTF-8" standalone="no"?>
<svg
   xmlns:dc="http://purl.org/dc/elements/1.1/"
   xmlns:cc="http://creativecommons.org/ns#"
   xmlns:rdf="http://www.w3.org/1999/02/22-rdf-syntax-ns#"
   xmlns:svg="http://www.w3.org/2000/svg"
   xmlns="http://www.w3.org/2000/svg"
   xmlns:sodipodi="http://sodipodi.sourceforge.net/DTD/sodipodi-0.dtd"
   xmlns:inkscape="http://www.inkscape.org/namespaces/inkscape"
   version="1.1"
   x="0px"
   y="0px"
   viewBox="0.777 5.106 100 87.64"
   enable-background="new 0.777 5.106 100 87.637"
   xml:space="preserve"
   id="svg2"
   inkscape:version="0.91 r13725"
   sodipodi:docname="gears_icon.svg"
   width="100"
   height="87.639999"><metadata
     id="metadata18"><rdf:RDF><cc:Work
         rdf:about=""><dc:format>image/svg+xml</dc:format><dc:type
           rdf:resource="http://purl.org/dc/dcmitype/StillImage" /><dc:title></dc:title></cc:Work></rdf:RDF></metadata><defs
     id="defs16" /><sodipodi:namedview
     pagecolor="#ffffff"
     bordercolor="#666666"
     borderopacity="1"
     objecttolerance="10"
     gridtolerance="10"
     guidetolerance="10"
     inkscape:pageopacity="0"
     inkscape:pageshadow="2"
     inkscape:window-width="1280"
     inkscape:window-height="830"
     id="namedview14"
     showgrid="false"
     fit-margin-top="0"
     fit-margin-left="0"
     fit-margin-right="0"
     fit-margin-bottom="0"
     inkscape:zoom="2.1543412"
     inkscape:cx="50"
     inkscape:cy="32.866875"
     inkscape:window-x="-8"
     inkscape:window-y="-8"
     inkscape:window-maximized="1"
     inkscape:current-layer="svg2" /><path
     d="m 100.777,70.593 -6.916,-4.06 C 94.09,63.747 93.75,61.028 92.939,58.506 l 5.797,-5.525 -4.004,-6.33 -7.474,2.871 C 85.306,47.701 82.98,46.23 80.4,45.254 c -0.002,0 -0.003,-10e-4 -0.004,-0.002 l -0.708,-7.986 -7.444,-0.816 -2.418,7.641 c -2.732,0.396 -5.312,1.329 -7.616,2.69 0,10e-4 -0.002,10e-4 -0.002,0.002 l -6.682,-4.424 -5.281,5.313 4.464,6.651 c -1.338,2.294 -2.247,4.86 -2.632,7.636 l -7.637,2.468 0.862,7.437 7.981,0.658 c 0,0.002 0,0.003 0,0.003 0.988,2.538 2.459,4.864 4.325,6.829 l -2.826,7.498 6.354,3.963 5.498,-5.839 c 1.273,0.404 2.59,0.68 3.972,0.834 1.371,0.154 2.731,0.164 4.059,0.056 l 4.097,6.88 7.062,-2.493 -1.135,-7.927 c 2.236,-1.517 4.188,-3.468 5.701,-5.737 l 0,-0.001 7.932,1.087 2.455,-7.082 z m -28.554,0.414 -3.381,-0.153 -1.624,-2.964 -1.977,-2.744 1.296,-3.119 0.911,-3.261 3.249,-0.933 3.119,-1.318 2.755,1.966 2.977,1.603 0.173,3.381 0.605,3.327 -2.537,2.25 -2.228,2.546 -3.338,-0.581 z"
     id="path4"
     inkscape:connector-curvature="0" /><path
     d="m 45.768,22.079 -4.905,1.757 0.711,4.814 5.202,0.263 0,0.001 c 0.691,1.635 1.701,3.106 2.941,4.345 l -1.685,4.927 4.206,2.446 3.453,-3.902 10e-4,0 c 0.837,0.243 1.703,0.395 2.592,0.461 0.899,0.067 1.768,0.057 2.634,-0.055 l 0.005,0 2.804,4.39 4.535,-1.763 -0.896,-5.119 c 1.426,-1.031 2.643,-2.337 3.589,-3.841 0.001,-0.001 0.001,-0.003 0.002,-0.003 l 5.167,0.543 1.448,-4.645 -4.575,-2.498 c 0,-10e-4 0,-0.003 0,-0.005 0.088,-1.823 -0.187,-3.568 -0.758,-5.181 -0.001,-0.002 -0.001,-0.004 -0.002,-0.006 l 3.652,-3.705 -2.729,-4.029 -4.8,2.019 c -1.314,-1.15 -2.839,-2.062 -4.538,-2.642 l -0.621,-5.1660001 -4.85,-0.379 L 56.934,10.12 c -1.767,0.307 -3.427,0.967 -4.898,1.889 -0.002,10e-4 -0.005,0.003 -0.007,0.004 L 47.612,9.2819999 44.291,12.839 l 3.035,4.23 0,0.001 c -0.823,1.512 -1.371,3.199 -1.558,5.009 z m 9.398,-0.246 0.518,-2.141 2.097,-0.67 1.998,-0.922 1.822,1.219 1.965,0.987 0.187,2.185 0.461,2.152 -1.603,1.515 -1.396,1.691 -2.172,-0.308 -2.195,-0.031 -1.122,-1.89 -1.342,-1.745 0.782,-2.042 z"
     id="path6"
     inkscape:connector-curvature="0" /><path
     d="m 46.513,58.497 1.871,-6.029 -5.931,-3.227 c 0,-0.002 0,-0.005 0,-0.008 0.104,-2.353 -0.252,-4.627 -1,-6.728 l 4.73,-4.811 -3.545,-5.221 -6.221,2.627 c -1.7,-1.49 -3.688,-2.666 -5.89,-3.421 L 29.715,24.983 23.423,24.5 21.601,30.991 c -0.002,0.001 -0.004,0.001 -0.005,0.001 -2.294,0.411 -4.438,1.269 -6.341,2.482 L 9.51,29.933 5.207,34.549 9.146,40.027 C 8.091,41.99 7.383,44.178 7.137,46.53 L 0.77700001,48.816 1.707,55.058 8.445,55.392 c 10e-4,0 10e-4,0.002 0.002,0.004 0.901,2.112 2.206,4.017 3.832,5.618 l 0,0 -2.178,6.402 5.461,3.165 4.458,-5.057 c 1.082,0.296 2.207,0.491 3.372,0.588 1.166,0.085 2.308,0.061 3.425,-0.064 0.001,0 0.003,0 0.005,0 l 3.635,5.676 5.877,-2.297 -1.175,-6.646 c 1.848,-1.348 3.425,-3.026 4.645,-4.982 0,0 0,-0.002 10e-4,-0.002 l 6.708,0.7 z m -22.161,-4.901 -2.845,-0.038 -1.458,-2.45 -1.74,-2.257 1.009,-2.657 0.676,-2.77 2.715,-0.872 2.587,-1.198 2.373,1.575 2.541,1.275 0.249,2.837 0.598,2.788 -2.077,1.966 -1.809,2.203 -2.819,-0.402 z"
     id="path8"
     inkscape:connector-curvature="0" /></svg>