<?xml version="1.0" encoding="UTF-8" standalone="no"?>
<svg
   xmlns:dc="http://purl.org/dc/elements/1.1/"
   xmlns:cc="http://creativecommons.org/ns#"
   xmlns:rdf="http://www.w3.org/1999/02/22-rdf-syntax-ns#"
   xmlns:svg="http://www.w3.org/2000/svg"
   xmlns="http://www.w3.org/2000/svg"
   xmlns:sodipodi="http://sodipodi.sourceforge.net/DTD/sodipodi-0.dtd"
   xmlns:inkscape="http://www.inkscape.org/namespaces/inkscape"
   version="1.1"
   x="0px"
   y="0px"
   viewBox="0 0 73.030998 89.999748"
   enable-background="new 0 0 100 100"
   xml:space="preserve"
   id="svg2"
   inkscape:version="0.91 r13725"
   sodipodi:docname="graduate_icon.svg"
   width="73.030998"
   height="89.999748"><metadata
     id="metadata18"><rdf:RDF><cc:Work
         rdf:about=""><dc:format>image/svg+xml</dc:format><dc:type
           rdf:resource="http://purl.org/dc/dcmitype/StillImage" /><dc:title></dc:title></cc:Work></rdf:RDF></metadata><defs
     id="defs16" /><sodipodi:namedview
     pagecolor="#ffffff"
     bordercolor="#666666"
     borderopacity="1"
     objecttolerance="10"
     gridtolerance="10"
     guidetolerance="10"
     inkscape:pageopacity="0"
     inkscape:pageshadow="2"
     inkscape:window-width="1920"
     inkscape:window-height="1177"
     id="namedview14"
     showgrid="false"
     fit-margin-top="0"
     fit-margin-left="0"
     fit-margin-right="0"
     fit-margin-bottom="0"
     inkscape:zoom="1.888"
     inkscape:cx="36.516"
     inkscape:cy="32.49975"
     inkscape:window-x="1912"
     inkscape:window-y="-8"
     inkscape:window-maximized="1"
     inkscape:current-layer="svg2" /><g
     id="g4"
     transform="translate(-13.484,-5)"><path
       d="m 59.012,58.101 c 6.167,-4.148 10.493,-12.058 11.046,-19.514 0.845,-0.737 1.334,-1.463 1.334,-2.111 l 0,-14.184 L 84.908,17.465 50.001,5 15.095,17.465 l 13.518,4.826 0,14.184 c 0,0.648 0.485,1.374 1.332,2.111 0.555,7.456 4.879,15.366 11.046,19.514 -15.8,4.009 -27.507,17.724 -27.507,27.887 0,12.017 73.031,12.017 73.031,0 0,-10.163 -11.701,-23.878 -27.503,-27.886 z m -9.011,36.893 -10.229,-10.23 8.612,-20.818 -0.089,0 -3.346,-3.836 c 1.622,0.583 3.306,0.929 5.056,0.929 1.747,0 3.429,-0.346 5.044,-0.926 l -3.346,3.829 -0.082,0 8.611,20.818 -10.231,10.234 z"
       id="path6"
       inkscape:connector-curvature="0" /><path
       d="m 21.492,21.242 0,22.821 c -0.735,0.433 -1.248,1.201 -1.248,2.113 0,1.378 1.116,2.491 2.494,2.491 1.376,0 2.492,-1.116 2.492,-2.491 0,-0.912 -0.511,-1.68 -1.25,-2.113 l 0,-22.099 -2.488,-0.722 z"
       id="path8"
       inkscape:connector-curvature="0" /></g></svg>