<?xml version="1.0" encoding="UTF-8" standalone="no"?>
<svg
   xmlns:dc="http://purl.org/dc/elements/1.1/"
   xmlns:cc="http://creativecommons.org/ns#"
   xmlns:rdf="http://www.w3.org/1999/02/22-rdf-syntax-ns#"
   xmlns:svg="http://www.w3.org/2000/svg"
   xmlns="http://www.w3.org/2000/svg"
   xmlns:sodipodi="http://sodipodi.sourceforge.net/DTD/sodipodi-0.dtd"
   xmlns:inkscape="http://www.inkscape.org/namespaces/inkscape"
   version="1.1"
   x="0px"
   y="0px"
   viewBox="-0.5 0 46.977001 100"
   enable-background="new -0.5 0 48 100"
   xml:space="preserve"
   id="svg2"
   inkscape:version="0.91 r13725"
   sodipodi:docname="microscope_icon.svg"
   width="46.977001"
   height="100"><metadata
     id="metadata14"><rdf:RDF><cc:Work
         rdf:about=""><dc:format>image/svg+xml</dc:format><dc:type
           rdf:resource="http://purl.org/dc/dcmitype/StillImage" /><dc:title></dc:title></cc:Work></rdf:RDF></metadata><defs
     id="defs12" /><sodipodi:namedview
     pagecolor="#ffffff"
     bordercolor="#666666"
     borderopacity="1"
     objecttolerance="10"
     gridtolerance="10"
     guidetolerance="10"
     inkscape:pageopacity="0"
     inkscape:pageshadow="2"
     inkscape:window-width="1920"
     inkscape:window-height="1177"
     id="namedview10"
     showgrid="false"
     fit-margin-top="0"
     fit-margin-left="0"
     fit-margin-right="0"
     fit-margin-bottom="0"
     inkscape:zoom="1.888"
     inkscape:cx="23.488"
     inkscape:cy="37.5"
     inkscape:window-x="1912"
     inkscape:window-y="-8"
     inkscape:window-maximized="1"
     inkscape:current-layer="svg2" /><path
     d="m 35.326,27.603 c 1.404,-1.019 2.714,-2.133 3.902,-3.329 4.739,-4.771 7.246,-10.467 7.246,-16.471 l 0,-3.532 C 46.474,1.912 44.563,0 42.204,0 39.847,0 37.933,1.912 37.933,4.271 l 0,0.854 -29.892,0 0,-0.854 C 8.041,1.912 6.129,0 3.771,0 1.412,0 -0.5,1.912 -0.5,4.271 l 0,3.532 c 0,6.004 2.505,11.7 7.246,16.471 3.991,4.017 9.347,7.12 15.082,8.738 4.279,1.208 8.414,3.59 11.342,6.538 1.741,1.753 3.751,4.407 4.48,7.799 l -29.325,0 c 0.357,-1.66 1.021,-3.143 1.808,-4.431 l 23.13,0 C 32.737,42.21 32.182,41.584 31.655,41.054 30.366,39.757 28.818,38.578 27.119,37.58 l -12.071,0 C 16.503,36.457 18.13,35.462 19.85,34.64 16.587,33.579 13.465,32.068 10.65,30.2 9.246,31.219 7.936,32.333 6.748,33.529 2.005,38.3 -0.5,43.996 -0.5,50 c 0,6.005 2.505,11.701 7.246,16.473 3.991,4.016 9.347,7.119 15.082,8.737 4.279,1.206 8.414,3.59 11.342,6.537 1.74,1.752 3.747,4.403 4.479,7.791 l -29.322,0 c 0.358,-1.66 1.022,-3.144 1.812,-4.43 l 23.119,0 C 32.734,84.401 32.18,83.78 31.654,83.252 30.362,81.95 28.808,80.769 27.103,79.77 l -12.045,0 c 1.451,-1.119 3.075,-2.11 4.79,-2.931 -3.263,-1.062 -6.385,-2.573 -9.2,-4.44 C 9.244,73.418 7.934,74.532 6.746,75.728 2.005,80.499 -0.5,86.194 -0.5,92.198 l 0,3.532 c 0,2.359 1.912,4.27 4.271,4.27 2.357,0 4.27,-1.911 4.27,-4.27 l 0,-0.855 29.894,0 0,0.855 c 0,2.358 1.912,4.27 4.271,4.27 2.359,0 4.271,-1.911 4.271,-4.27 l 0,-3.532 c 0,-6.004 -2.506,-11.699 -7.246,-16.471 -3.991,-4.017 -9.348,-7.12 -15.081,-8.738 -4.28,-1.207 -8.414,-3.59 -11.342,-6.537 -1.742,-1.753 -3.751,-4.408 -4.48,-7.8 l 29.323,0 c -0.356,1.66 -1.021,3.144 -1.81,4.431 l -23.129,0 c 0.526,0.708 1.081,1.334 1.608,1.864 1.289,1.298 2.838,2.477 4.536,3.474 l 12.07,0 c -1.455,1.122 -3.082,2.117 -4.802,2.939 3.264,1.062 6.385,2.573 9.2,4.44 1.404,-1.019 2.713,-2.133 3.902,-3.328 4.739,-4.771 7.246,-10.468 7.246,-16.473 0,-6.004 -2.507,-11.7 -7.246,-16.472 C 35.235,29.511 29.878,26.407 24.145,24.79 19.865,23.583 15.731,21.2 12.803,18.253 11.062,16.501 9.055,13.849 8.324,10.462 l 29.321,0 c -0.357,1.66 -1.021,3.143 -1.812,4.43 l -23.12,0 c 0.525,0.706 1.078,1.327 1.604,1.856 1.293,1.301 2.847,2.483 4.551,3.482 l 12.046,0 c -1.453,1.119 -3.077,2.111 -4.791,2.931 3.265,1.062 6.386,2.574 9.203,4.442 z"
     id="path4"
     inkscape:connector-curvature="0" /></svg>