<?xml version="1.0" encoding="UTF-8" standalone="no"?>
<svg
   xmlns:dc="http://purl.org/dc/elements/1.1/"
   xmlns:cc="http://creativecommons.org/ns#"
   xmlns:rdf="http://www.w3.org/1999/02/22-rdf-syntax-ns#"
   xmlns:svg="http://www.w3.org/2000/svg"
   xmlns="http://www.w3.org/2000/svg"
   xmlns:sodipodi="http://sodipodi.sourceforge.net/DTD/sodipodi-0.dtd"
   xmlns:inkscape="http://www.inkscape.org/namespaces/inkscape"
   version="1.1"
   x="0px"
   y="0px"
   viewBox="0 0 75.678001 100.00023"
   enable-background="new 0 0 100 100"
   xml:space="preserve"
   id="svg2"
   inkscape:version="0.91 r13725"
   sodipodi:docname="popularity_icon.svg"
   width="75.678001"
   height="100.00023"><metadata
     id="metadata24"><rdf:RDF><cc:Work
         rdf:about=""><dc:format>image/svg+xml</dc:format><dc:type
           rdf:resource="http://purl.org/dc/dcmitype/StillImage" /><dc:title></dc:title></cc:Work></rdf:RDF></metadata><defs
     id="defs22" /><sodipodi:namedview
     pagecolor="#ffffff"
     bordercolor="#666666"
     borderopacity="1"
     objecttolerance="10"
     gridtolerance="10"
     guidetolerance="10"
     inkscape:pageopacity="0"
     inkscape:pageshadow="2"
     inkscape:window-width="1920"
     inkscape:window-height="1177"
     id="namedview20"
     showgrid="false"
     fit-margin-top="0"
     fit-margin-left="0"
     fit-margin-right="0"
     fit-margin-bottom="0"
     inkscape:zoom="1.888"
     inkscape:cx="37.838"
     inkscape:cy="37.5"
     inkscape:window-x="1912"
     inkscape:window-y="-8"
     inkscape:window-maximized="1"
     inkscape:current-layer="svg2" /><g
     id="g4"
     transform="translate(-12.162,2.2604695e-4)"><g
       id="g6"><g
         id="g8"><path
           d="m 25.708,14.79 c 2.889,4.42 8.815,5.66 13.235,2.766 4.42,-2.889 5.655,-8.81 2.766,-13.234 -2.889,-4.41 -8.81,-5.652 -13.23,-2.763 -4.425,2.896 -5.66,8.818 -2.771,13.231 z"
           id="path10"
           inkscape:connector-curvature="0" /><path
           d="m 53.842,29.439 -13.13,3.237 -7.328,-8.128 C 32.23,22.807 30.41,21.506 28.199,21.07 c -4.384,-0.861 -8.633,2 -9.487,6.379 l -4.948,25.255 c -0.147,0.753 -0.147,1.495 -0.086,2.223 l -1.013,20.324 -0.503,23.884 7.076,0.6 3.504,-23.674 0.012,-0.175 0.688,-13.752 c 0.062,-0.016 0.12,-0.036 0.181,-0.052 l 4.87,11.171 -0.512,25.416 7.436,0.542 3.246,-26.47 c 0.061,-0.824 -0.075,-1.624 -0.406,-2.382 l -7.914,-18.153 3.046,-15.571 3.105,3.444 c 0.78,0.866 1.871,1.334 2.992,1.334 0.439,0 0.885,-0.072 1.318,-0.22 l 14.887,-6.361 -1.849,-5.393 z"
           id="path12"
           inkscape:connector-curvature="0" /></g></g><path
       d="m 85.593,27.242 -15.769,5.327 0,-9.04 4.707,3.473 1.705,-1.708 -8.266,-11.212 -4.652,4.653 4.396,3.24 0,11.305 -17.281,5.84 2.247,6.643 3.313,-1.122 0,55.359 26.294,0 0,-64.241 5.553,-1.877 -2.247,-6.64 z M 62.32,18.17 67.519,12.971 c -0.194,-0.533 -0.486,-1.037 -0.912,-1.465 -1.588,-1.588 -4.164,-1.588 -5.752,0 -1.59,1.585 -1.59,4.159 0,5.747 0.426,0.426 0.933,0.718 1.465,0.917 z"
       id="path14"
       inkscape:connector-curvature="0" /></g></svg>