<?xml version="1.0" encoding="UTF-8" standalone="no"?>
<svg
   xmlns:dc="http://purl.org/dc/elements/1.1/"
   xmlns:cc="http://creativecommons.org/ns#"
   xmlns:rdf="http://www.w3.org/1999/02/22-rdf-syntax-ns#"
   xmlns:svg="http://www.w3.org/2000/svg"
   xmlns="http://www.w3.org/2000/svg"
   xmlns:sodipodi="http://sodipodi.sourceforge.net/DTD/sodipodi-0.dtd"
   xmlns:inkscape="http://www.inkscape.org/namespaces/inkscape"
   version="1.1"
   x="0px"
   y="0px"
   viewBox="0 0 84.400002 90"
   enable-background="new 0 0 100 100"
   xml:space="preserve"
   id="svg2"
   inkscape:version="0.91 r13725"
   sodipodi:docname="sexism_icon.svg"
   width="84.400002"
   height="90"><metadata
     id="metadata18"><rdf:RDF><cc:Work
         rdf:about=""><dc:format>image/svg+xml</dc:format><dc:type
           rdf:resource="http://purl.org/dc/dcmitype/StillImage" /><dc:title></dc:title></cc:Work></rdf:RDF></metadata><defs
     id="defs16" /><sodipodi:namedview
     pagecolor="#ffffff"
     bordercolor="#666666"
     borderopacity="1"
     objecttolerance="10"
     gridtolerance="10"
     guidetolerance="10"
     inkscape:pageopacity="0"
     inkscape:pageshadow="2"
     inkscape:window-width="1920"
     inkscape:window-height="1177"
     id="namedview14"
     showgrid="false"
     fit-margin-top="0"
     fit-margin-left="0"
     fit-margin-right="0"
     fit-margin-bottom="0"
     inkscape:zoom="1.888"
     inkscape:cx="42.2"
     inkscape:cy="32.5"
     inkscape:window-x="1912"
     inkscape:window-y="-8"
     inkscape:window-maximized="1"
     inkscape:current-layer="svg2" /><g
     id="g4"
     transform="translate(-7.8,-5)"><path
       d="m 44.2,39.9 c -6.6,0 -12,5.4 -12,12 0,6 4.5,11 10.3,11.9 l 0,3.9 -6.4,0 0,3.9 6.4,0 0,6.4 3.9,0 0,-6.4 6.4,0 0,-3.9 -6.4,0 0,-4 c 5.6,-1 9.9,-5.9 9.9,-11.8 -0.1,-6.6 -5.5,-12 -12.1,-12 z m 0,20.3 c -4.6,0 -8.3,-3.7 -8.3,-8.3 0,-4.6 3.7,-8.3 8.3,-8.3 4.6,0 8.3,3.7 8.3,8.3 0,4.6 -3.7,8.3 -8.3,8.3 z"
       id="path6"
       inkscape:connector-curvature="0"
       style="fill:#000000" /><path
       d="m 62.1,5 c -3.1,0 -5.6,2.5 -5.6,5.6 0,3.1 2.5,5.6 5.6,5.6 l 11.5,0 L 62,27.7 C 56.7,24.6 50.5,22.8 43.9,22.8 24,22.8 7.8,39 7.8,58.9 7.8,78.8 24,95 43.9,95 63.8,95 80,78.8 80,58.9 80,49.6 76.5,41.2 70.7,34.8 L 81,24.5 81,35 c 0,3.1 2.5,5.6 5.6,5.6 3.1,0 5.6,-2.5 5.6,-5.6 L 92.2,5 62.1,5 Z M 43.9,83.8 C 30.2,83.8 19,72.7 19,58.9 19,45.1 30.2,34 43.9,34 c 13.7,0 24.9,11.2 24.9,24.9 0,13.7 -11.1,24.9 -24.9,24.9 z"
       id="path8"
       inkscape:connector-curvature="0"
       style="fill:#000000" /></g></svg>