<?xml version="1.0" encoding="UTF-8" standalone="no"?>
<svg
   xmlns:dc="http://purl.org/dc/elements/1.1/"
   xmlns:cc="http://creativecommons.org/ns#"
   xmlns:rdf="http://www.w3.org/1999/02/22-rdf-syntax-ns#"
   xmlns:svg="http://www.w3.org/2000/svg"
   xmlns="http://www.w3.org/2000/svg"
   xmlns:sodipodi="http://sodipodi.sourceforge.net/DTD/sodipodi-0.dtd"
   xmlns:inkscape="http://www.inkscape.org/namespaces/inkscape"
   version="1.1"
   x="0px"
   y="0px"
   viewBox="0 0 92.458 73.417145"
   enable-background="new 0 0 100 100"
   xml:space="preserve"
   id="svg2"
   inkscape:version="0.91 r13725"
   sodipodi:docname="slacking_icon.svg"
   width="92.458"
   height="73.417145"><metadata
     id="metadata22"><rdf:RDF><cc:Work
         rdf:about=""><dc:format>image/svg+xml</dc:format><dc:type
           rdf:resource="http://purl.org/dc/dcmitype/StillImage" /><dc:title></dc:title></cc:Work></rdf:RDF></metadata><defs
     id="defs20" /><sodipodi:namedview
     pagecolor="#ffffff"
     bordercolor="#666666"
     borderopacity="1"
     objecttolerance="10"
     gridtolerance="10"
     guidetolerance="10"
     inkscape:pageopacity="0"
     inkscape:pageshadow="2"
     inkscape:window-width="1920"
     inkscape:window-height="1177"
     id="namedview18"
     showgrid="false"
     fit-margin-top="0"
     fit-margin-left="0"
     fit-margin-right="0"
     fit-margin-bottom="0"
     inkscape:zoom="1.888"
     inkscape:cx="22.457932"
     inkscape:cy="24.348111"
     inkscape:window-x="1912"
     inkscape:window-y="-8"
     inkscape:window-maximized="1"
     inkscape:current-layer="svg2" /><g
     id="g4"
     transform="translate(-2.648,-13.430969)"><path
       d="m 21.223,31.136 c 0,0 -1.571,-5.429 -9.001,-3.572 -7.431,1.857 -8.145,3.143 -8.145,3.143 l -1.429,1.571 c 0,0 3.716,-8.287 8.859,-9.859 5.144,-1.571 8.859,-1.715 8.859,-1.715 0,0 -0.428,-3 -3.143,-3.715 -2.715,-0.715 -6.144,-0.715 -6.144,-0.715 0,0 5.144,-4.715 10.86,-2.001 5.715,2.715 5.429,5.573 5.429,5.573 0,0 6.573,-4.715 10.002,-4.715 3.429,0 5.287,2.143 5.287,2.143 0,0 -2.055,0.143 -4.858,1.429 -2.803,1.285 -2.803,3.286 -2.803,3.286 0,0 4.804,0.859 7.946,3.573 3.143,2.715 5.43,9.001 5.43,9.001 0,0 -3.572,-3.429 -7.43,-5.286 -3.858,-1.858 -10.145,-2.573 -10.145,-2.573 0,0 5.144,4.144 5.43,6.431 0.285,2.286 0,7.573 0,7.573 0,0 -2.144,-5.573 -5.716,-7.573 -3.571,-2.001 -6,-4 -6.429,-1.715 -0.429,2.285 -1.001,13.753 -1.001,13.753 l 0,27.434 -6.459,-0.003 c 0,0 0.067,-20.04 1.029,-27.324 1,-7.572 3.572,-14.144 3.572,-14.144 z"
       id="path6"
       inkscape:connector-curvature="0"
       style="clip-rule:evenodd;fill-rule:evenodd" /><path
       d="m 82.098,80.127 c 0,0 1.424,-12.557 -1.149,-26.559 -2.572,-14.002 -6.001,-16.717 -6.001,-16.717 0,0 -4.429,-0.428 -5.573,2.715 -1.143,3.143 -1.143,6.001 -1.143,5.572 0,-0.429 -2.429,-1.286 -1.858,-5.001 0.572,-3.715 1.43,-5.001 1.43,-5.001 0,0 -5.859,1.715 -7.86,4.001 -2,2.287 -3.286,4.858 -3.286,4.858 0,0 0,-5.715 2.572,-8.573 2.573,-2.858 5.859,-4.859 5.859,-4.859 0,0 -0.858,-0.857 -2.858,-1.429 -2.001,-0.571 -4.287,-0.143 -4.287,-0.143 0,0 4.715,-3.573 8.287,-3.001 3.573,0.572 5.43,2.429 5.43,2.429 0,0 -0.713,-3.857 1.715,-6.858 2.429,-3.001 9.287,-1.287 9.287,-1.287 0,0 -5.859,1.287 -6.43,3.43 -0.571,2.143 -0.714,4.572 -0.714,4.572 0,0 5.287,-2.858 9.287,-1.715 4.001,1.143 7.287,5.858 7.287,5.858 0,0 -4.287,-2.572 -7.859,-2 -3.572,0.571 -6.001,2.572 -6.001,2.572 l -1.143,1.286 c 0,0 6.287,12.288 7.859,18.432 1.571,6.144 1.571,25.719 1.571,25.719 l -4.422,1.699 z"
       id="path8"
       inkscape:connector-curvature="0"
       style="clip-rule:evenodd;fill-rule:evenodd" /><path
       d="m 23.223,54.569 c 0,0 9.288,13.288 28.148,13.145 18.861,-0.143 29.577,-14.146 29.577,-14.146 0,0 -16.86,7.288 -27.434,6.573 C 42.941,59.426 23.223,54.569 23.223,54.569 Z"
       id="path10"
       inkscape:connector-curvature="0"
       style="clip-rule:evenodd;fill-rule:evenodd" /><path
       d="m 8.729,75.244 c 0,0 7.952,-5.995 21.043,-0.979 13.091,5.016 18.353,6.118 26.427,7.219 8.075,1.1 19.453,1.346 24.714,-0.979 5.261,-2.324 14.193,-6.24 14.193,-6.24 0,0 -11.991,10.89 -25.449,12.235 C 56.199,87.846 44.699,85.031 38.704,82.462 32.709,79.893 27.203,75.856 21.331,75.367 15.458,74.877 8.729,75.244 8.729,75.244 Z"
       id="path12"
       inkscape:connector-curvature="0"
       style="clip-rule:evenodd;fill-rule:evenodd" /></g></svg>