<?xml version="1.0" encoding="UTF-8" standalone="no"?>
<svg
   xmlns:dc="http://purl.org/dc/elements/1.1/"
   xmlns:cc="http://creativecommons.org/ns#"
   xmlns:rdf="http://www.w3.org/1999/02/22-rdf-syntax-ns#"
   xmlns:svg="http://www.w3.org/2000/svg"
   xmlns="http://www.w3.org/2000/svg"
   xmlns:sodipodi="http://sodipodi.sourceforge.net/DTD/sodipodi-0.dtd"
   xmlns:inkscape="http://www.inkscape.org/namespaces/inkscape"
   version="1.1"
   x="0px"
   y="0px"
   viewBox="0 0 90.000999 71.469994"
   enable-background="new 0 0 100 100"
   xml:space="preserve"
   id="svg2"
   inkscape:version="0.91 r13725"
   sodipodi:docname="stereotypical_icon.svg"
   width="90.000999"
   height="71.469994"><metadata
     id="metadata24"><rdf:RDF><cc:Work
         rdf:about=""><dc:format>image/svg+xml</dc:format><dc:type
           rdf:resource="http://purl.org/dc/dcmitype/StillImage" /><dc:title></dc:title></cc:Work></rdf:RDF></metadata><defs
     id="defs22" /><sodipodi:namedview
     pagecolor="#ffffff"
     bordercolor="#666666"
     borderopacity="1"
     objecttolerance="10"
     gridtolerance="10"
     guidetolerance="10"
     inkscape:pageopacity="0"
     inkscape:pageshadow="2"
     inkscape:window-width="1920"
     inkscape:window-height="1177"
     id="namedview20"
     showgrid="false"
     fit-margin-top="0"
     fit-margin-left="0"
     fit-margin-right="0"
     fit-margin-bottom="0"
     inkscape:zoom="1.888"
     inkscape:cx="45.001"
     inkscape:cy="32.479"
     inkscape:window-x="1912"
     inkscape:window-y="-8"
     inkscape:window-maximized="1"
     inkscape:current-layer="svg2" /><path
     d="m 45.474,4.0849964 c 1.286,0 1.006,2.235 2.236,4.526 1.229,2.2899996 3.127,3.7709996 7.22,3.2389996 4.092,-0.53 4.846,-3.1839996 4.846,-3.1839996 0,0 1.341,-3.966 1.675,-4.833 0.337,-0.866 0.895,-0.698 0.895,-0.838 L 62.71,0.73299641 c 0,0 -7.375,-1.90000001 -15.559,0.41799999 0,0 -1.173,0.335 -1.677,0.335 l -0.946,0 c -0.503,0 -1.676,-0.335 -1.676,-0.335 -8.185,-2.318 -15.56,-0.41799999 -15.56,-0.41799999 l 0.364,2.26199999 c 0,0.14 0.558,-0.028 0.895,0.838 0.334,0.866 1.675,4.833 1.675,4.833 0,0 0.754,2.6539996 4.846,3.1839996 4.092,0.532 5.991,-0.949 7.22,-3.2389996 1.229,-2.291 0.95,-4.526 2.236,-4.526 l 0.946,0 z"
     id="path4"
     inkscape:connector-curvature="0" /><g
     id="g6"
     transform="translate(-4.999,-23.509004)"><path
       d="m 9.529,69.819 c 0,0 -3.558,16.771 -3.558,17.179 0,0.185 -0.465,3.947 -0.972,7.981 l 10.293,0 -5.763,-25.16 z"
       id="path8"
       inkscape:connector-curvature="0" /><path
       d="m 94.028,86.998 c 0,-0.407 -3.558,-17.179 -3.558,-17.179 l -5.764,25.16 10.294,0 c -0.506,-4.035 -0.972,-7.796 -0.972,-7.981 z"
       id="path10"
       inkscape:connector-curvature="0" /><path
       d="m 83.044,94.979 c 0.17,-0.738 0.279,-1.208 0.295,-1.273 0.102,-0.406 5.59,-24.598 5.59,-24.598 l -5.59,-4.473 -6.302,-1.423 -1.83,-1.524 -4.777,-1.729 -2.253,-0.626 c 0,0 -0.327,17.422 -18.177,25.574 C 32.149,76.756 31.822,59.333 31.822,59.333 l -2.252,0.626 -4.777,1.729 -1.831,1.524 -6.302,1.423 -5.589,4.473 c 0,0 5.488,24.191 5.589,24.598 0.016,0.065 0.125,0.535 0.295,1.273 l 66.089,0 z"
       id="path12"
       inkscape:connector-curvature="0" /></g><path
     d="m 48.965,17.054996 c -0.968,-1.008 -3.083,-0.792 -3.752,0.436 -0.087,0.16 -0.157,0.328 -0.212,0.501 -0.055,-0.173 -0.125,-0.342 -0.212,-0.501 -0.668,-1.228 -2.784,-1.444 -3.752,-0.436 -6.184,6.436 -9.872,0.186 -9.872,0.186 0,0 2.669,10.096 12.292,4.261 0.845,-0.513 1.331,-1.171 1.543,-1.853 0.213,0.681 0.698,1.34 1.543,1.853 9.623,5.835 12.292,-4.261 12.292,-4.261 0,0 -3.686,6.25 -9.87,-0.186 z"
     id="path14"
     inkscape:connector-curvature="0" /></svg>